<svg width="55" height="55" viewBox="0 0 55 55" fill="none" xmlns="http://www.w3.org/2000/svg">
<path d="M9.5 7.25C8.25737 7.25 7.25 8.25737 7.25 9.5V23C7.25 24.2427 8.25737 25.25 9.5 25.25H23C24.2427 25.25 25.25 24.2427 25.25 23V9.5C25.25 8.25737 24.2427 7.25 23 7.25H9.5ZM9.5 29.75C8.25737 29.75 7.25 30.7573 7.25 32V45.5C7.25 46.7427 8.25737 47.75 9.5 47.75H23C24.2427 47.75 25.25 46.7427 25.25 45.5V32C25.25 30.7573 24.2427 29.75 23 29.75H9.5ZM32 29.75C30.7573 29.75 29.75 30.7573 29.75 32V45.5C29.75 46.7427 30.7573 47.75 32 47.75H45.5C46.7427 47.75 47.75 46.7427 47.75 45.5V32C47.75 30.7573 46.7427 29.75 45.5 29.75H32ZM36.5 25.25V18.5H29.75V14H36.5V7.25H41V14H47.75V18.5H41V25.25H36.5Z" fill="#FFFDFD"/>
</svg>
