<svg width="24" height="25" viewBox="0 0 24 25" fill="none" xmlns="http://www.w3.org/2000/svg">
<path d="M13.001 20.4381C16.9473 19.946 20.001 16.5796 20.001 12.5C20.001 8.08172 16.4193 4.5 12.001 4.5C7.5827 4.5 4.00098 8.08172 4.00098 12.5C4.00098 16.5796 7.05467 19.946 11.001 20.4381V14.5H9.00098V12.5H11.001V10.8458C11.001 9.50855 11.1402 9.02362 11.4017 8.53473C11.6631 8.04584 12.0468 7.66216 12.5357 7.4007C12.9184 7.19604 13.3931 7.07252 14.2227 7.01954C14.5519 6.99851 14.9781 7.02533 15.501 7.1V9H15.001C14.0837 9 13.7052 9.04332 13.4789 9.16433C13.3386 9.23939 13.2404 9.33758 13.1653 9.47793C13.0443 9.70418 13.001 9.92853 13.001 10.8458V12.5H15.501L15.001 14.5H13.001V20.4381ZM12.001 22.5C6.47813 22.5 2.00098 18.0228 2.00098 12.5C2.00098 6.97715 6.47813 2.5 12.001 2.5C17.5238 2.5 22.001 6.97715 22.001 12.5C22.001 18.0228 17.5238 22.5 12.001 22.5Z" fill="white"/>
</svg>
