<svg width="24" height="25" viewBox="0 0 24 25" fill="none" xmlns="http://www.w3.org/2000/svg">
<path d="M12.001 9.5C10.3436 9.5 9.00098 10.8431 9.00098 12.5C9.00098 14.1573 10.3441 15.5 12.001 15.5C13.6583 15.5 15.001 14.1569 15.001 12.5C15.001 10.8427 13.6579 9.5 12.001 9.5ZM12.001 7.5C14.7614 7.5 17.001 9.7371 17.001 12.5C17.001 15.2605 14.7639 17.5 12.001 17.5C9.24051 17.5 7.00098 15.2629 7.00098 12.5C7.00098 9.73953 9.23808 7.5 12.001 7.5ZM18.501 7.24915C18.501 7.93926 17.9402 8.49917 17.251 8.49917C16.5609 8.49917 16.001 7.9384 16.001 7.24915C16.001 6.5599 16.5617 6 17.251 6C17.9393 5.99913 18.501 6.5599 18.501 7.24915ZM12.001 4.5C9.5265 4.5 9.12318 4.50655 7.97227 4.5578C7.18815 4.59461 6.66253 4.70007 6.17416 4.88967C5.74016 5.05799 5.42709 5.25898 5.09352 5.59255C4.75867 5.9274 4.55804 6.23963 4.3904 6.67383C4.20036 7.16332 4.09493 7.68811 4.05878 8.47115C4.00703 9.5752 4.00098 9.96105 4.00098 12.5C4.00098 14.9745 4.00753 15.3778 4.05877 16.5286C4.0956 17.3124 4.2012 17.8388 4.39034 18.326C4.5591 18.7606 4.7605 19.0744 5.09246 19.4064C5.42863 19.7421 5.74179 19.9434 6.17187 20.1094C6.66619 20.3005 7.19148 20.4061 7.97212 20.4422C9.07618 20.4939 9.46203 20.5 12.001 20.5C14.4755 20.5 14.8788 20.4934 16.0296 20.4422C16.8117 20.4055 17.3385 20.2996 17.827 20.1106C18.2604 19.9423 18.5752 19.7402 18.9074 19.4085C19.2436 19.0718 19.4445 18.7594 19.6107 18.3283C19.8013 17.8358 19.9071 17.3098 19.9432 16.5289C19.9949 15.4248 20.001 15.0389 20.001 12.5C20.001 10.0255 19.9944 9.62221 19.9432 8.47137C19.9064 7.68906 19.8005 7.16149 19.6113 6.67318C19.4434 6.24038 19.2417 5.92635 18.9084 5.59255C18.573 5.25715 18.2616 5.05693 17.8271 4.88942C17.338 4.69954 16.8124 4.59396 16.0298 4.55781C14.9258 4.50605 14.5399 4.5 12.001 4.5ZM12.001 2.5C14.7176 2.5 15.0568 2.51 16.1235 2.56C17.1876 2.60917 17.9135 2.7775 18.551 3.025C19.2101 3.27917 19.7668 3.6225 20.3226 4.17833C20.8776 4.73417 21.221 5.2925 21.476 5.95C21.7226 6.58667 21.891 7.31333 21.941 8.3775C21.9885 9.44417 22.001 9.78333 22.001 12.5C22.001 15.2167 21.991 15.5558 21.941 16.6225C21.8918 17.6867 21.7226 18.4125 21.476 19.05C21.2218 19.7092 20.8776 20.2658 20.3226 20.8217C19.7668 21.3767 19.2076 21.72 18.551 21.975C17.9135 22.2217 17.1876 22.39 16.1235 22.44C15.0568 22.4875 14.7176 22.5 12.001 22.5C9.28431 22.5 8.94514 22.49 7.87848 22.44C6.81431 22.3908 6.08931 22.2217 5.45098 21.975C4.79264 21.7208 4.23514 21.3767 3.67931 20.8217C3.12348 20.2658 2.78098 19.7067 2.52598 19.05C2.27848 18.4125 2.11098 17.6867 2.06098 16.6225C2.01348 15.5558 2.00098 15.2167 2.00098 12.5C2.00098 9.78333 2.01098 9.44417 2.06098 8.3775C2.11014 7.3125 2.27848 6.5875 2.52598 5.95C2.78014 5.29167 3.12348 4.73417 3.67931 4.17833C4.23514 3.6225 4.79348 3.28 5.45098 3.025C6.08848 2.7775 6.81348 2.61 7.87848 2.56C8.94514 2.5125 9.28431 2.5 12.001 2.5Z" fill="white"/>
</svg>
