<svg width="24" height="25" viewBox="0 0 24 25" fill="none" xmlns="http://www.w3.org/2000/svg">
<path d="M12.001 10.05C12.9181 9.11327 14.1121 8.5 15.501 8.5C18.5385 8.5 21.001 10.9624 21.001 14V21.5H19.001V14C19.001 12.067 17.434 10.5 15.501 10.5C13.568 10.5 12.001 12.067 12.001 14V21.5H10.001V9H12.001V10.05ZM5.00098 7C4.17255 7 3.50098 6.32843 3.50098 5.5C3.50098 4.67157 4.17255 4 5.00098 4C5.8294 4 6.50098 4.67157 6.50098 5.5C6.50098 6.32843 5.8294 7 5.00098 7ZM4.00098 9H6.00098V21.5H4.00098V9Z" fill="white"/>
</svg>
